<svg id="geo-thermal" xmlns="http://www.w3.org/2000/svg" width="90" height="90" viewBox="0 0 90 90">
  <path id="Path_13" data-name="Path 13" d="M24.5,21.67C24.5,15.5,21.239,10.42,14.38,9.94V33.4c6.859-.48,10.118-5.556,10.118-11.73" transform="translate(34.418 23.23)"/>
  <path id="Path_14" data-name="Path 14" d="M14.38.78V14.239C31.528,14.742,42.161,27.4,42.161,43S31.528,71.262,14.38,71.765V85.224c27.438-.5,41.534-19.2,41.534-42.222S41.818,1.283,14.38.78" transform="translate(34.086 1.895)"/>
  <path id="Path_15" data-name="Path 15" d="M19.446,33.683A66.632,66.632,0,0,1,16.531,14.82H0s.309,3.738.72,5.83C3.876,26.412,10.6,30.665,19.446,33.683" transform="translate(0 34.722)"/>
  <path id="Path_16" data-name="Path 16" d="M18.962,28.716C11.211,26.247,4.866,22.44.75,17.81A43.305,43.305,0,0,0,30.726,46.551c-4.9-3.5-9.02-9.809-11.764-17.834" transform="translate(1.822 41.426)"/>
  <path id="Path_17" data-name="Path 17" d="M7.08,21.374c3.4,9.26,8.437,15.879,14.508,17.766h0s.309.1.789.24h1.132A17.424,17.424,0,0,0,28.721,40V23.775h-2.4A74.628,74.628,0,0,1,7.08,21.34" transform="translate(16.903 50.003)"/>
  <path id="Path_18" data-name="Path 18" d="M9.045,34.438c5.762,1.715,13.136,2.126,20.064,2.126l2.5-.549V14.82H5.89A67.7,67.7,0,0,0,9.045,34.438" transform="translate(14.046 34.669)"/>
  <path id="Path_19" data-name="Path 19" d="M19.446,6.9c-1.783,5.968-2.847,16.874-2.915,20.3H0a29.173,29.173,0,0,1,.72-6.551C3.876,14.891,10.6,9.918,19.446,6.9" transform="translate(0 16.154)"/>
  <path id="Path_20" data-name="Path 20" d="M18.962,18.424C11.211,20.894,4.866,24.7.75,29.331A43.11,43.11,0,0,1,30.726.59c-4.9,3.5-9.02,9.809-11.764,17.834" transform="translate(1.822 1.434)"/>
  <path id="Path_21" data-name="Path 21" d="M7.08,18.623c3.4-9.26,8.437-15.879,14.508-17.766h0s.309-.1.789-.24h1.132A17.424,17.424,0,0,1,28.721,0V16.222h-2.4A74.628,74.628,0,0,0,7.08,18.657" transform="translate(16.903)"/>
  <path id="Path_22" data-name="Path 22" d="M9.045,8.818A73.8,73.8,0,0,1,29.109,5.971l2.5-.171V29.876H5.89A77.907,77.907,0,0,1,9.045,8.818" transform="translate(14.046 13.55)"/>
</svg>
