<svg xmlns="http://www.w3.org/2000/svg" width="90" height="72.008" viewBox="0 0 90 72.008">
  <path id="idea" d="M9.745.512l6.75,4.5a3.378,3.378,0,0,1-3.741,5.625L6,6.137A3.378,3.378,0,1,1,9.745.512ZM84,6.137l-6.75,4.5A3.378,3.378,0,1,1,73.5,5.012l6.75-4.5A3.378,3.378,0,1,1,84,6.137ZM3.375,22.449h9a3.375,3.375,0,0,1,0,6.75h-9a3.375,3.375,0,0,1,0-6.75Zm74.25,0h9a3.375,3.375,0,0,1,0,6.75h-9a3.375,3.375,0,0,1,0-6.75ZM16.5,46.637l-6.75,4.5A3.378,3.378,0,0,1,6,45.512l6.75-4.5A3.378,3.378,0,0,1,16.5,46.637Zm60.75-5.611,6.75,4.5a3.378,3.378,0,1,1-3.741,5.625l-6.75-4.5a3.378,3.378,0,0,1,3.741-5.625Zm-14.077.8c-2.784,3.811-5.583,7.65-6.919,12.122H33.75c-1.35-4.486-4.148-8.311-6.919-12.122h0c-.731-1-1.462-2-2.166-3.009A24.755,24.755,0,1,1,65.334,38.8c-.7,1.013-1.434,2.011-2.166,3.009h0ZM56.25,60.7a11.25,11.25,0,1,1-22.5,0v-2.25h22.5ZM48.375,12.324a3.375,3.375,0,0,0-6.75,0v15.75a3.375,3.375,0,0,0,6.75,0ZM45,44.949a4.5,4.5,0,1,0-4.5-4.5A4.5,4.5,0,0,0,45,44.949Z" transform="translate(0 0.059)"/>
</svg>
