<svg id="logo" xmlns="http://www.w3.org/2000/svg" xmlns:xlink="http://www.w3.org/1999/xlink" width="489.915" height="75.905" viewBox="0 0 489.915 75.905">
  <defs>
    <clipPath id="clip-path">
      <rect id="Rectangle_31" data-name="Rectangle 31" width="489.915" height="75.905" fill="none"/>
    </clipPath>
  </defs>
  <rect id="Rectangle_25" data-name="Rectangle 25" width="183.63" height="75.905" transform="translate(0 0)" fill="#62af31"/>
  <rect id="Rectangle_26" data-name="Rectangle 26" width="306.268" height="75.905" transform="translate(183.63 0)" fill="#00732d"/>
  <g id="Group_11" data-name="Group 11" transform="translate(0 0)">
    <g id="Group_10" data-name="Group 10" clip-path="url(#clip-path)">
      <path id="Path_44" data-name="Path 44" d="M89.346,23.129c-3.215,0-4.957-2.6-4.957-5.857,0-3.193,1.861-7.718,6.093-7.718,2.879,0,4.935,2.116,4.935,5.643,0,3.348-1.744,7.933-6.072,7.933m1.077-12.263c-3.527,0-4.349,4.761-4.349,6.739,0,3.115,1.7,4.211,3.272,4.211,3.682,0,4.406-5.171,4.406-6.954,0-2.957-1.821-4-3.329-4" transform="translate(116.709 13.212)" fill="#fff"/>
      <path id="Path_45" data-name="Path 45" d="M95.339,14.374h-2.35L91.578,22.9H90.089L91.5,14.374H89.7l.2-1.175h1.8c.334-2.037,1.156-3.663,3.956-3.663a6.085,6.085,0,0,1,.9.057l-.193,1.177c-.334-.019-.491-.041-.708-.041-1.332,0-2.233.548-2.466,2.469h2.35Z" transform="translate(124.051 13.19)" fill="#fff"/>
      <path id="Path_46" data-name="Path 46" d="M98.027,14.374h-2.35L94.266,22.9H92.777l1.411-8.522h-1.8l.2-1.175h1.8c.334-2.037,1.156-3.663,3.956-3.663a6.143,6.143,0,0,1,.9.057l-.2,1.177c-.334-.019-.491-.041-.708-.041-1.332,0-2.233.548-2.466,2.469h2.35Z" transform="translate(127.768 13.19)" fill="#fff"/>
      <path id="Path_47" data-name="Path 47" d="M95.114,22.726l1.606-9.7h1.508l-1.625,9.7ZM96.8,11.442l.293-1.782h1.94l-.293,1.782Z" transform="translate(131.541 13.36)" fill="#fff"/>
      <path id="Path_48" data-name="Path 48" d="M104.055,14.664c-.176-1.332-.9-2.409-2.233-2.409-2.7,0-3,4.056-3,4.9,0,2.233,1.253,2.8,2.214,2.8,1.685,0,2.39-1.666,2.683-2.333l1.215.472a4.212,4.212,0,0,1-4.053,3.172c-2,0-3.665-1.449-3.665-4.366,0-2.96,1.744-5.957,4.663-5.957a3.6,3.6,0,0,1,3.641,3.41Z" transform="translate(134.451 15.133)" fill="#fff"/>
      <path id="Path_49" data-name="Path 49" d="M102.945,16.231a5.048,5.048,0,0,0-.06.765c0,1.685.9,2.976,2.586,2.976a3.314,3.314,0,0,0,2.919-1.88l1.253.589a4.671,4.671,0,0,1-4.192,2.545c-2,0-4.132-1.253-4.132-4.425,0-3.293,2.095-5.857,4.992-5.857,1.706,0,3.86.9,3.86,4.17a8.7,8.7,0,0,1-.079,1.118Zm5.7-1.1c.2-2.8-1.782-3.038-2.39-3.038a3.386,3.386,0,0,0-3.134,3.038Z" transform="translate(140.124 15.134)" fill="#fff"/>
      <path id="Path_50" data-name="Path 50" d="M111.405,21.189c-2.7,0-3.9-2.195-3.9-4.466,0-2.626,1.723-5.741,4.895-5.741,2.176,0,3.86,1.508,3.86,4.506,0,2.547-1.7,5.7-4.859,5.7m2.8-8.109a2.36,2.36,0,0,0-1.9-.922c-2.6,0-3.193,3.489-3.193,4.9,0,.412,0,2.941,2.371,2.941,2.566,0,3.193-3.35,3.193-5.016a3.173,3.173,0,0,0-.469-1.9" transform="translate(148.683 15.189)" fill="#fff"/>
      <path id="Path_51" data-name="Path 51" d="M117.6,14.374h-2.352L113.843,22.9h-1.489l1.411-8.522h-1.8l.2-1.175h1.8c.334-2.037,1.156-3.663,3.956-3.663a6.108,6.108,0,0,1,.9.057l-.2,1.177c-.334-.019-.489-.041-.705-.041-1.332,0-2.233.548-2.466,2.469h2.35Z" transform="translate(154.843 13.19)" fill="#fff"/>
      <path id="Path_52" data-name="Path 52" d="M117.667,23.56V9.057h9.327v2.154h-6.718v3.934h5.39v2.109h-5.39V21.32h6.806v2.24Z" transform="translate(162.731 12.526)" fill="#fff"/>
      <path id="Path_53" data-name="Path 53" d="M133.66,23.56h-2.393L125.594,14.3c-.152-.238-.674-1.349-.8-1.609V23.56H122.7V9.057h2.893l5.088,8.545c.043.11.391.739.891,1.694V9.057h2.087Z" transform="translate(169.693 12.526)" fill="#fff"/>
      <path id="Path_54" data-name="Path 54" d="M128.767,23.56V9.057h9.327v2.154h-6.718v3.934h5.39v2.109h-5.39V21.32h6.8v2.24Z" transform="translate(178.082 12.526)" fill="#fff"/>
      <path id="Path_55" data-name="Path 55" d="M142.344,23.56,140.083,17.6h-3.675V23.56H133.8V9.057h6.282a5.26,5.26,0,0,1,3.784,1.13,4.026,4.026,0,0,1,1.3,3.134,3.86,3.86,0,0,1-2.609,3.846l2.545,6.394Zm-5.936-8.045h3.262c1.284,0,2.783-.436,2.783-2.24,0-1.087-.717-2.13-2.566-2.13h-3.479Z" transform="translate(185.044 12.526)" fill="#fff"/>
      <path id="Path_56" data-name="Path 56" d="M151.108,23.686h-1.151l-.805-1.956a4.227,4.227,0,0,1-3.915,2.173c-5.324,0-5.891-5.8-5.891-7.478,0-3.131,1.523-7.459,6.2-7.459a5.113,5.113,0,0,1,4.154,1.849,5.593,5.593,0,0,1,1.239,2.586l-2.283.393a3.054,3.054,0,0,0-3.043-2.652,3.022,3.022,0,0,0-2.478,1.194,5.925,5.925,0,0,0-1.022,3.915c0,2.609.586,5.5,3.455,5.5a3.085,3.085,0,0,0,3.088-3.372h-3V16.272h5.457Z" transform="translate(192.713 12.4)" fill="#fff"/>
      <path id="Path_57" data-name="Path 57" d="M149.443,23.56V17.45l-4.935-8.393h3.153l3.436,5.981,3.281-5.981H156.9l-4.7,8.393v6.11Z" transform="translate(199.852 12.526)" fill="#fff"/>
      <path id="Path_58" data-name="Path 58" d="M153.128,23.56V9.057h9.329v2.154h-6.72v3.934h5.393v2.109h-5.393V21.32h6.806v2.24Z" transform="translate(211.773 12.526)" fill="#fff"/>
      <path id="Path_59" data-name="Path 59" d="M158.163,23.56V9.057h9.153V11.3h-6.477v3.98h5.109V17.45h-5.109v6.11Z" transform="translate(218.736 12.526)" fill="#fff"/>
      <path id="Path_60" data-name="Path 60" d="M163.069,23.56V9.057h9.153V11.3h-6.479v3.98h5.112V17.45h-5.112v6.11Z" transform="translate(225.522 12.526)" fill="#fff"/>
      <rect id="Rectangle_27" data-name="Rectangle 27" width="2.609" height="14.503" transform="translate(399.957 21.585)" fill="#fff"/>
      <path id="Path_61" data-name="Path 61" d="M181.169,18.924c-.565,3.827-3.2,4.978-5.5,4.978-4.871,0-5.8-4.978-5.8-7.478,0-3.763,1.74-7.459,5.891-7.459,3.088,0,4.892,1.956,5.414,5.133l-2.433.26c-.262-1.153-.763-3.284-2.957-3.284-2.914,0-3.088,3.98-3.088,5.283,0,4.154,1.651,5.35,3.174,5.35,1.37,0,2.652-1.087,2.872-3.067Z" transform="translate(234.919 12.4)" fill="#fff"/>
      <rect id="Rectangle_28" data-name="Rectangle 28" width="2.609" height="14.503" transform="translate(418.128 21.585)" fill="#fff"/>
      <path id="Path_62" data-name="Path 62" d="M177.854,23.56V9.057h9.327v2.154h-6.72v3.934h5.393v2.109h-5.393V21.32h6.806v2.24Z" transform="translate(245.969 12.526)" fill="#fff"/>
      <path id="Path_63" data-name="Path 63" d="M193.937,23.56h-2.39L185.873,14.3c-.155-.238-.674-1.349-.805-1.609V23.56H182.98V9.057h2.893l5.085,8.545c.043.11.393.739.894,1.694V9.057h2.085Z" transform="translate(253.058 12.526)" fill="#fff"/>
      <path id="Path_64" data-name="Path 64" d="M199.893,18.924c-.565,3.827-3.2,4.978-5.5,4.978-4.871,0-5.8-4.978-5.8-7.478,0-3.763,1.74-7.459,5.893-7.459,3.086,0,4.89,1.956,5.412,5.133l-2.433.26c-.262-1.153-.763-3.284-2.957-3.284-2.914,0-3.088,3.98-3.088,5.283,0,4.154,1.651,5.35,3.174,5.35,1.37,0,2.652-1.087,2.871-3.067Z" transform="translate(260.814 12.4)" fill="#fff"/>
      <path id="Path_65" data-name="Path 65" d="M198.385,23.56V17.45L193.45,9.057H196.6l3.436,5.981,3.281-5.981h2.521l-4.694,8.393v6.11Z" transform="translate(267.537 12.526)" fill="#fff"/>
      <path id="Path_66" data-name="Path 66" d="M98.695,24.541a10.525,10.525,0,0,1-2.586,5.478c.8.827,1.108,1.153,1.954,1.153a2.669,2.669,0,0,0,.631-.064v2.042c-2.173.045-2.652.045-4.261-1.523a8.066,8.066,0,0,1-4.74,1.544c-2.848,0-5.457-1.7-5.457-4.544,0-2.717,2.283-3.76,3.76-4.456a4.133,4.133,0,0,1-1.261-2.762c0-1.935,1.609-3.174,3.784-3.174,2.064,0,3.846,1.11,3.846,3.131a3.2,3.2,0,0,1-.913,2.24,5,5,0,0,1-1.89,1.3l3.129,3.565a8.836,8.836,0,0,0,1.2-2.042,10.635,10.635,0,0,0,.632-2.261Zm-9.437,1.218a5.691,5.691,0,0,0-1.456.979,2.365,2.365,0,0,0-.7,1.737,2.667,2.667,0,0,0,2.957,2.588,5.086,5.086,0,0,0,2.979-1.02Zm2.957-4.349a1.373,1.373,0,0,0-1.5-1.325,1.421,1.421,0,0,0-1.544,1.282,2.972,2.972,0,0,0,1.194,1.956c.631-.281,1.849-.848,1.849-1.914" transform="translate(116.498 25.22)" fill="#fff"/>
      <path id="Path_67" data-name="Path 67" d="M102.612,32.831l-2.259-5.957H96.678v5.957H94.069v-14.5h6.284a5.257,5.257,0,0,1,3.782,1.13,4.018,4.018,0,0,1,1.306,3.131,3.861,3.861,0,0,1-2.609,3.849l2.543,6.394Zm-5.934-8.045h3.26c1.284,0,2.783-.436,2.783-2.24,0-1.087-.717-2.13-2.566-2.13H96.678Z" transform="translate(130.096 25.347)" fill="#fff"/>
      <path id="Path_68" data-name="Path 68" d="M100.071,32.83v-14.5H109.4v2.152H102.68v3.937h5.39v2.109h-5.39V30.59h6.8v2.24Z" transform="translate(138.396 25.347)" fill="#fff"/>
      <path id="Path_69" data-name="Path 69" d="M116.153,32.831H113.76l-5.674-9.263c-.15-.238-.674-1.349-.8-1.609V32.831H105.2v-14.5h2.891l5.088,8.545c.043.11.391.739.891,1.694V18.328h2.087Z" transform="translate(145.484 25.347)" fill="#fff"/>
      <path id="Path_70" data-name="Path 70" d="M111.125,32.83v-14.5h9.327v2.152h-6.718v3.937h5.39v2.109h-5.39V30.59h6.8v2.24Z" transform="translate(153.684 25.347)" fill="#fff"/>
      <path id="Path_71" data-name="Path 71" d="M130.7,32.83h-2.738l-2.893-10.654L122.464,32.83h-2.7l-3.956-14.5h2.781l2.8,10.59,2.609-10.59h2.631l2.893,10.59,2.74-10.59h2.3Z" transform="translate(160.167 25.347)" fill="#fff"/>
      <path id="Path_72" data-name="Path 72" d="M136.422,32.831h-2.783l-1.175-3.458H126.9l-1.13,3.458h-2.24l4.828-14.5h3.2Zm-4.654-5.545-2.109-6.479-2.109,6.479Z" transform="translate(170.837 25.347)" fill="#fff"/>
      <path id="Path_73" data-name="Path 73" d="M129.713,18.328h5.65a4.587,4.587,0,0,1,3.915,1.392,3.692,3.692,0,0,1,.805,2.369,3.152,3.152,0,0,1-2.631,3.238,3.808,3.808,0,0,1,2.261,1.175,3.663,3.663,0,0,1,.824,2.371,3.961,3.961,0,0,1-1.175,2.891,4.652,4.652,0,0,1-3.3,1.065h-6.348Zm2.478,6.11h3.2a2.026,2.026,0,1,0-.064-4.044h-3.131Zm0,6.217h3.391a2.048,2.048,0,0,0,2.3-2.087,2.081,2.081,0,0,0-2.3-2.066h-3.391Z" transform="translate(179.391 25.347)" fill="#fff"/>
      <path id="Path_74" data-name="Path 74" d="M135.112,32.83v-14.5h2.762V30.459h6.153V32.83Z" transform="translate(186.858 25.347)" fill="#fff"/>
      <path id="Path_75" data-name="Path 75" d="M139.563,32.83v-14.5h9.327v2.152h-6.72v3.937h5.4v2.109h-5.4V30.59h6.806v2.24Z" transform="translate(193.013 25.347)" fill="#fff"/>
      <path id="Path_76" data-name="Path 76" d="M147.926,32.83v-14.5h9.327v2.152h-6.718v3.937h5.393v2.109h-5.393V30.59h6.806v2.24Z" transform="translate(204.579 25.347)" fill="#fff"/>
      <path id="Path_77" data-name="Path 77" d="M164.1,32.831h-2.39l-5.674-9.263c-.155-.238-.674-1.349-.805-1.609V32.831h-2.09v-14.5h2.9l5.085,8.545c.043.11.391.739.894,1.694V18.328H164.1Z" transform="translate(211.794 25.347)" fill="#fff"/>
      <path id="Path_78" data-name="Path 78" d="M159.209,32.83v-14.5h9.329v2.152h-6.72v3.937h5.393v2.109h-5.393V30.59h6.806v2.24Z" transform="translate(220.183 25.347)" fill="#fff"/>
      <path id="Path_79" data-name="Path 79" d="M172.742,32.831l-2.261-5.957h-3.675v5.957H164.2v-14.5h6.284a5.257,5.257,0,0,1,3.782,1.13,4.026,4.026,0,0,1,1.306,3.131,3.861,3.861,0,0,1-2.609,3.849l2.543,6.394Zm-5.936-8.045h3.26c1.284,0,2.783-.436,2.783-2.24,0-1.087-.717-2.13-2.564-2.13h-3.479Z" transform="translate(227.082 25.347)" fill="#fff"/>
      <path id="Path_80" data-name="Path 80" d="M181.5,32.957h-1.151L179.548,31a4.219,4.219,0,0,1-3.913,2.176c-5.328,0-5.893-5.8-5.893-7.48,0-3.129,1.523-7.456,6.2-7.456a5.113,5.113,0,0,1,4.154,1.849,5.582,5.582,0,0,1,1.239,2.586l-2.283.393A3.052,3.052,0,0,0,176,20.413a3.016,3.016,0,0,0-2.478,1.2,5.908,5.908,0,0,0-1.022,3.91c0,2.612.586,5.5,3.458,5.5a3.083,3.083,0,0,0,3.086-3.37h-3V25.543H181.5Z" transform="translate(234.75 25.221)" fill="#fff"/>
      <path id="Path_81" data-name="Path 81" d="M179.886,32.83V26.72l-4.935-8.393H178.1l3.436,5.981,3.281-5.981h2.521l-4.694,8.393v6.11Z" transform="translate(241.953 25.347)" fill="#fff"/>
      <path id="Path_82" data-name="Path 82" d="M14.674,29.245H27.015V22.778H14.674V19.149H27.937V12.662H7.6V40.648H28.407v-6.47H14.674Z" transform="translate(10.512 17.511)" fill="#fff"/>
      <path id="Path_83" data-name="Path 83" d="M32.5,27.091,24.1,12.662H17.609V40.648h6.72V26.6l8.252,14.05H39.22V12.662H32.5Z" transform="translate(24.352 17.511)" fill="#fff"/>
      <path id="Path_84" data-name="Path 84" d="M35.442,29.245H47.784V22.778H35.442V19.149H48.706V12.662H28.37V40.648H49.176v-6.47H35.442Z" transform="translate(39.235 17.511)" fill="#fff"/>
      <path id="Path_85" data-name="Path 85" d="M56.482,29.643a11.215,11.215,0,0,0-1.015-1A7.658,7.658,0,0,0,58.7,26.467a8.175,8.175,0,0,0,1.88-5.5,8.835,8.835,0,0,0-1.225-4.623,6.767,6.767,0,0,0-3.377-2.917,17.759,17.759,0,0,0-6.112-.77h-11.5V40.648h7.073v-10.8a6.582,6.582,0,0,1,2.085.226,2.806,2.806,0,0,1,1.072.794,34,34,0,0,1,2.512,3.665l3.9,6.12h8.369l-3.946-6.639a30.431,30.431,0,0,0-2.945-4.366M45.437,19.148h2.819c2.559,0,3.272.048,3.439.071a1.964,1.964,0,0,1,1.239.648,2.18,2.18,0,0,1,.422,1.437,2.5,2.5,0,0,1-.334,1.37,1.648,1.648,0,0,1-.863.674,16.456,16.456,0,0,1-4.106.255H45.437Z" transform="translate(53.057 17.511)" fill="#fff"/>
      <path id="Path_86" data-name="Path 86" d="M61.071,31.388h5.686V33.1a10.079,10.079,0,0,1-2.04,1.108,7.163,7.163,0,0,1-2.726.565A5.3,5.3,0,0,1,57.7,32.84C56.575,31.507,56,29.41,56,26.61c0-2.571.558-4.5,1.656-5.745a5.51,5.51,0,0,1,4.385-1.816,4.636,4.636,0,0,1,2.936.886,4.44,4.44,0,0,1,1.58,2.452l.257.946,6.937-1.368-.214-1.041a10.283,10.283,0,0,0-3.694-6.2,12.377,12.377,0,0,0-7.8-2.245,13.265,13.265,0,0,0-6.389,1.415,12.216,12.216,0,0,0-5.15,5.264,16.663,16.663,0,0,0-1.725,7.666,17.567,17.567,0,0,0,1.537,7.33,11.731,11.731,0,0,0,4.73,5.34,14.027,14.027,0,0,0,7.263,1.852A16.883,16.883,0,0,0,68.7,40.058a14.485,14.485,0,0,0,4.873-3.036l.3-.31V24.921H61.071Z" transform="translate(67.462 17.255)" fill="#fff"/>
      <path id="Path_87" data-name="Path 87" d="M77.827,12.662,72.77,21.794l-5.159-9.132h-8.3L69.127,29V40.648h7.056V29.031l9.849-16.369Z" transform="translate(82.03 17.512)" fill="#fff"/>
      <path id="Path_88" data-name="Path 88" d="M8.228,14a2.5,2.5,0,0,0,.944.648,4.762,4.762,0,0,0,1.756.25,4.386,4.386,0,0,0,1.551-.229,2.427,2.427,0,0,0,.948-.615,2.041,2.041,0,0,0,.489-.948,9.31,9.31,0,0,0,.133-1.918V7.225H12.417V11.4a8.322,8.322,0,0,1-.069,1.282,1.046,1.046,0,0,1-.427.651,1.729,1.729,0,0,1-1.044.265A1.83,1.83,0,0,1,9.8,13.318a1.209,1.209,0,0,1-.5-.746,7.814,7.814,0,0,1-.062-1.261V7.225H7.611V11.25a8.531,8.531,0,0,0,.16,1.916A2.023,2.023,0,0,0,8.228,14" transform="translate(10.526 9.992)" fill="#fff"/>
      <rect id="Rectangle_29" data-name="Rectangle 29" width="1.549" height="1.446" transform="translate(27.083 23.32)" fill="#fff"/>
      <path id="Path_89" data-name="Path 89" d="M17.385,13.383A1.911,1.911,0,0,1,16.2,13.7a1.838,1.838,0,0,1-1.182-.35,1.763,1.763,0,0,1-.581-1.1l-1.587.145a2.811,2.811,0,0,0,.982,1.928,3.662,3.662,0,0,0,2.352.662,4.858,4.858,0,0,0,1.756-.276,2.282,2.282,0,0,0,1.091-.841,2.236,2.236,0,0,0,.062-2.416,2.2,2.2,0,0,0-.891-.767,8.19,8.19,0,0,0-1.761-.543,4.48,4.48,0,0,1-1.5-.505.564.564,0,0,1-.243-.458.54.54,0,0,1,.26-.469,1.965,1.965,0,0,1,1.113-.272,1.716,1.716,0,0,1,1.032.255,1.265,1.265,0,0,1,.448.836l1.632-.067A2.143,2.143,0,0,0,18.377,7.8a3.581,3.581,0,0,0-2.29-.624,4.254,4.254,0,0,0-1.587.265,2.161,2.161,0,0,0-1.01.763,1.871,1.871,0,0,0-.348,1.079,1.909,1.909,0,0,0,.743,1.518,4.573,4.573,0,0,0,1.84.748q1.019.236,1.306.329a1.378,1.378,0,0,1,.586.326.659.659,0,0,1,.167.455.911.911,0,0,1-.4.729" transform="translate(17.769 9.917)" fill="#fff"/>
      <rect id="Rectangle_30" data-name="Rectangle 30" width="1.547" height="1.446" transform="translate(39.345 23.317)" fill="#fff"/>
      <path id="Path_90" data-name="Path 90" d="M24.327,14.613a2.946,2.946,0,0,0,1.146-.6,3.318,3.318,0,0,0,.865-1.332,4.7,4.7,0,0,0,.248-1.609,5.226,5.226,0,0,0-.265-1.782,3.229,3.229,0,0,0-.772-1.222,2.741,2.741,0,0,0-1.218-.7,6.261,6.261,0,0,0-1.537-.143H19.816v7.545h3.067a5.337,5.337,0,0,0,1.444-.157M21.446,13.5v-5h.732a7.628,7.628,0,0,1,1.339.074,1.582,1.582,0,0,1,.755.355,1.7,1.7,0,0,1,.462.729A4.261,4.261,0,0,1,24.9,11a4.639,4.639,0,0,1-.164,1.382,1.575,1.575,0,0,1-.427.729,1.54,1.54,0,0,1-.658.315,4.794,4.794,0,0,1-.987.071Z" transform="translate(27.405 9.993)" fill="#fff"/>
      <path id="Path_91" data-name="Path 91" d="M29.716,13.5H25.205V11.446h4.053V10.174H25.205V8.5h4.356V7.226H23.573V14.77h6.143Z" transform="translate(32.601 9.993)" fill="#fff"/>
      <path id="Path_92" data-name="Path 92" d="M32.3,11.46a2.11,2.11,0,0,0,.686-.743,2.313,2.313,0,0,0,.269-1.168,2.238,2.238,0,0,0-.467-1.47,2.126,2.126,0,0,0-1.163-.739,10.033,10.033,0,0,0-1.937-.114H27.068v7.547H28.7V11.924h1.063a9.747,9.747,0,0,0,1.69-.107,2.387,2.387,0,0,0,.846-.357m-1.418-.934a4.5,4.5,0,0,1-1.289.119H28.7V8.5h.786a8.131,8.131,0,0,1,1.175.052,1.149,1.149,0,0,1,.655.334.941.941,0,0,1,.257.679.982.982,0,0,1-.183.589,1.072,1.072,0,0,1-.51.369" transform="translate(37.435 9.992)" fill="#fff"/>
      <path id="Path_93" data-name="Path 93" d="M32.262,13.059h3.227l.705,1.713H37.97L34.736,7.225H33.011l-3.146,7.547H31.6Zm1.592-4.073,1.113,2.8h-2.2Z" transform="translate(41.303 9.992)" fill="#fff"/>
      <path id="Path_94" data-name="Path 94" d="M35.6,11.622h.331a2.828,2.828,0,0,1,.82.086,1.239,1.239,0,0,1,.491.315,10.678,10.678,0,0,1,.86,1.108l1.177,1.642h1.949l-.984-1.47a8.456,8.456,0,0,0-.929-1.227,3.741,3.741,0,0,0-.872-.631,2.646,2.646,0,0,0,1.6-.7,1.935,1.935,0,0,0,.536-1.4,2.068,2.068,0,0,0-.355-1.189,1.824,1.824,0,0,0-.939-.722,6.234,6.234,0,0,0-1.88-.2H33.967v7.547H35.6Zm0-3.119h1.273c.66,0,1.058.01,1.189.026a1.015,1.015,0,0,1,.615.3.869.869,0,0,1,.217.615.94.94,0,0,1-.164.567.877.877,0,0,1-.458.319,6.617,6.617,0,0,1-1.466.093H35.6Z" transform="translate(46.976 9.992)" fill="#fff"/>
      <path id="Path_95" data-name="Path 95" d="M39.872,14.772H41.5V8.5h2.393V7.225H37.477V8.5h2.395Z" transform="translate(51.831 9.992)" fill="#fff"/>
      <path id="Path_96" data-name="Path 96" d="M42.454,8.831l1.6,5.941h1.57l1.6-5.941v5.941H48.74V7.225H46.293l-1.449,5.147L43.378,7.225h-2.44v7.547h1.516Z" transform="translate(56.617 9.992)" fill="#fff"/>
      <path id="Path_97" data-name="Path 97" d="M51.369,13.5H46.858V11.446h4.053V10.174H46.858V8.5h4.356V7.226H45.228V14.77h6.141Z" transform="translate(62.549 9.993)" fill="#fff"/>
      <path id="Path_98" data-name="Path 98" d="M50.243,9.851,53.5,14.772h1.637V7.225H53.62v5.04l-3.305-5.04H48.728v7.547h1.516Z" transform="translate(67.389 9.992)" fill="#fff"/>
      <path id="Path_99" data-name="Path 99" d="M54.629,14.772h1.63V8.5h2.393V7.225H52.234V8.5h2.395Z" transform="translate(72.238 9.992)" fill="#fff"/>
      <path id="Path_100" data-name="Path 100" d="M61.144,14.975a3.9,3.9,0,0,0,2.843-1.032,3.793,3.793,0,0,0,1.063-2.86,3.822,3.822,0,0,0-1.07-2.879,3.947,3.947,0,0,0-2.857-1.034,4.676,4.676,0,0,0-1.74.3,3.114,3.114,0,0,0-1.044.679,3.493,3.493,0,0,0-.753,1.034,4.535,4.535,0,0,0-.369,1.935,3.761,3.761,0,0,0,1.063,2.831,3.952,3.952,0,0,0,2.864,1.025M59.514,9.12a2.368,2.368,0,0,1,3.243-.007,2.711,2.711,0,0,1,.608,1.935,2.764,2.764,0,0,1-.627,1.971,2.281,2.281,0,0,1-3.208-.007A2.707,2.707,0,0,1,58.9,11.07a2.729,2.729,0,0,1,.617-1.949" transform="translate(79.13 9.917)" fill="#fff"/>
      <path id="Path_101" data-name="Path 101" d="M63.009,11.565h3.372V10.288H63.009V8.5h3.906V7.225H61.379v7.547h1.63Z" transform="translate(84.886 9.993)" fill="#fff"/>
    </g>
  </g>
</svg>
