<svg id="wind" xmlns="http://www.w3.org/2000/svg" width="78.004" height="90" viewBox="0 0 78.004 90">
  <path id="Path_37" data-name="Path 37" d="M47.7,39.824,28.667,13.69l-11.387.24L14.88,16.3Z" transform="translate(30.302 28.773)"/>
  <path id="Path_38" data-name="Path 38" d="M19.93,39.922,24.046,0,10.91,29.564l5.8,9.466Z" transform="translate(23.412)"/>
  <path id="Path_39" data-name="Path 39" d="M38.1,17.424,37.247,14.2,0,31.143l32.171-3.4Z" transform="translate(0 30.382)"/>
  <path id="Path_40" data-name="Path 40" d="M17.352,11.87a6.225,6.225,0,1,0,6.242,6.242,6.243,6.243,0,0,0-6.242-6.242" transform="translate(23.87 25.58)"/>
  <path id="Path_41" data-name="Path 41" d="M7.619,36.217a27.434,27.434,0,0,1,.137-6.928A26.488,26.488,0,0,1,24.9,8.505L23.842,5.59A29.618,29.618,0,0,0,4.67,28.809,30.731,30.731,0,0,0,4.5,36.56l3.087-.343Z" transform="translate(9.15 11.614)"/>
  <path id="Path_42" data-name="Path 42" d="M42.2,27.762a26.563,26.563,0,0,1-12.175,5.385l-1.3-16.737H22.482l-1.3,16.737A26.663,26.663,0,0,1,9.586,28.105L7.7,30.575a29.722,29.722,0,0,0,13.239,5.693L19.361,56.88h12.45L30.233,36.268A29.651,29.651,0,0,0,44.089,30.2l-1.955-2.435Z" transform="translate(15.453 33.12)"/>
  <path id="Path_43" data-name="Path 43" d="M30.85,31.4l3.121-.1A29.608,29.608,0,0,0,17.92,6.02L16.48,8.8A26.479,26.479,0,0,1,30.85,31.4" transform="translate(34.19 12.674)"/>
</svg>
