<svg id="aptive-logo" xmlns="http://www.w3.org/2000/svg" width="489.14" height="208.327" viewBox="0 0 489.14 208.327">
  <path id="Path_102" data-name="Path 102" d="M72.257,230.15a11.8,11.8,0,0,0,1.862,7.143,8.3,8.3,0,0,0,4.658,3.571,15.9,15.9,0,0,0,6.52.934,19.7,19.7,0,0,0,9.781-2.638,18.775,18.775,0,0,0,6.832-6.674,15.9,15.9,0,0,0,2.485-7.918V213.39c-10.709.153-18.786,1.551-24.061,4.347C74.894,220.37,72.257,224.564,72.257,230.15Z" transform="translate(-36.552 -107.981)" fill="#1b365d"/>
  <path id="Path_103" data-name="Path 103" d="M0,38.5V208.327l103.541-38.5V0ZM90.347,141.419H68.613l.464-11.332-1.24-.311a46.982,46.982,0,0,1-12.883,9.934,28.629,28.629,0,0,1-12.883,3.107,22.407,22.407,0,0,1-10.556-2.327,15.773,15.773,0,0,1-6.985-6.52,19.488,19.488,0,0,1-2.485-9.781c0-7.76,3.883-13.658,11.49-17.852s19.092-6.674,34.306-7.3V93.919a41.817,41.817,0,0,0-1.551-13.041,13.262,13.262,0,0,0-4.969-6.985,17.059,17.059,0,0,0-9.158-2.173,14.5,14.5,0,0,0-9.934,3.26,18.871,18.871,0,0,0-5.587,9.781H26.235V74.516a118.932,118.932,0,0,1,12.73-5.9,75.287,75.287,0,0,1,10.092-2.949A46.049,46.049,0,0,1,59.3,64.582a26.855,26.855,0,0,1,12.572,2.485,16.161,16.161,0,0,1,7.143,7.607c1.551,3.413,2.327,8.536,2.327,15.526v35.7a22.059,22.059,0,0,0,.464,4.5,8.394,8.394,0,0,0,1.24,3.26,5.841,5.841,0,0,0,2.327,2.02,27.126,27.126,0,0,0,4.969,1.862v3.873Z" fill="#1b365d"/>
  <path id="Path_104" data-name="Path 104" d="M256.461,204.932V221.7a62.2,62.2,0,0,0,.311,7.607,12.211,12.211,0,0,0,1.24,4.036,5.472,5.472,0,0,0,2.638,2.327,21.413,21.413,0,0,0,5.587,1.709v3.883H233.946v-3.883c1.551-.464,3.107-.934,4.658-1.551a7.058,7.058,0,0,0,2.8-2.485,10.753,10.753,0,0,0,1.24-4.347,58.477,58.477,0,0,0,.311-7.3v-68c0-3.725,0-6.52-.153-8.071a18.127,18.127,0,0,0-.622-4.036,8.578,8.578,0,0,0-1.4-2.638,9.41,9.41,0,0,0-2.485-1.862,31.356,31.356,0,0,0-5.122-1.4v-4.189l18.628-.776h4.811l-1.087,12.883,1.24.311a86.718,86.718,0,0,1,7.76-7.3,47.088,47.088,0,0,1,5.9-3.725,36.307,36.307,0,0,1,5.745-2.173,26.4,26.4,0,0,1,5.9-.622q13.041,0,20.026,9.781c4.658,6.52,6.985,15.99,6.985,28.561a52.8,52.8,0,0,1-4.036,21.888,28.353,28.353,0,0,1-11.49,13.352,34.475,34.475,0,0,1-18.005,4.5,59.169,59.169,0,0,1-10.556-.934A25.189,25.189,0,0,1,256.461,204.932Zm0-26.082a50.3,50.3,0,0,0,.934,11.8,13.76,13.76,0,0,0,3.413,6.674,16.355,16.355,0,0,0,5.745,3.883,23.526,23.526,0,0,0,8.694,1.24,15.78,15.78,0,0,0,14.439-7.918c3.26-5.276,4.811-13.194,4.811-23.439,0-20.648-6.056-31.046-18.163-31.046a20.661,20.661,0,0,0-7.607,1.4,22.628,22.628,0,0,0-6.362,4.5,20.591,20.591,0,0,0-4.5,5.9,14.311,14.311,0,0,0-1.24,6.209Z" transform="translate(-117.991 -65.839)" fill="#1b365d"/>
  <path id="Path_105" data-name="Path 105" d="M426.45,117.409a17.2,17.2,0,0,0,6.362-2.173,13.773,13.773,0,0,0,3.883-4.036,22.728,22.728,0,0,0,2.173-6.209c.464-2.485,1.087-6.209,1.709-11.021h11.179v19.4h25.612v8.071H451.756v35.24a107.361,107.361,0,0,0,.622,12.265,19.391,19.391,0,0,0,2.327,7.143,10.4,10.4,0,0,0,4.036,3.725,12.275,12.275,0,0,0,5.745,1.087,13.039,13.039,0,0,0,5.9-1.24,18.82,18.82,0,0,0,5.434-3.725l3.571,4.347A41.734,41.734,0,0,1,468.68,188.2a24.416,24.416,0,0,1-10.4,2.485c-6.832,0-11.8-2.02-15.214-6.056-3.26-4.036-4.969-10.4-4.969-18.939v-44.24H426.45Z" transform="translate(-215.796 -47.552)" fill="#1b365d"/>
  <path id="Path_106" data-name="Path 106" d="M575.39,204.48a21.1,21.1,0,0,0,4.347-1.709,4.55,4.55,0,0,0,2.173-2.02,9.064,9.064,0,0,0,1.4-3.883,35.178,35.178,0,0,0,.464-8.071V154.179c0-3.413,0-6.056-.153-8.072a13.58,13.58,0,0,0-1.087-4.969,6.47,6.47,0,0,0-2.949-2.8,21.879,21.879,0,0,0-5.434-1.551V132.6l18.475-.622h4.811v56.505a48.453,48.453,0,0,0,.622,9.469,6.62,6.62,0,0,0,2.485,4.036,15.42,15.42,0,0,0,5.9,2.485v3.883H575.395V204.48Z" transform="translate(-290.537 -66.786)" fill="#1b365d"/>
  <path id="Path_107" data-name="Path 107" d="M704.175,133.245v3.883a19.909,19.909,0,0,0-5.122,1.709,5.424,5.424,0,0,0-2.173,2.02,6.493,6.493,0,0,0-.776,3.413,22.1,22.1,0,0,0,.464,4.5c.464,1.862.934,3.571,1.551,5.434l13.816,40.051,16.143-38.342a41.952,41.952,0,0,0,2.174-6.209,16.082,16.082,0,0,0,.622-4.658,6.875,6.875,0,0,0-1.709-5.122,14.4,14.4,0,0,0-6.52-2.8v-3.883h29.648v4.036a14.136,14.136,0,0,0-4.811,1.862,10.95,10.95,0,0,0-3.26,4.189,62.322,62.322,0,0,0-3.883,7.918l-26.546,58.526h-9.316l-21.409-59.148a64.856,64.856,0,0,0-3.571-8.383,10.006,10.006,0,0,0-2.8-3.413,12.258,12.258,0,0,0-4.5-1.709V133.24Z" transform="translate(-340.153 -67.423)" fill="#1b365d"/>
  <path id="Path_108" data-name="Path 108" d="M922.818,194.1a52.043,52.043,0,0,1-9.316,8.23,34.879,34.879,0,0,1-9.316,4.658,33.6,33.6,0,0,1-11.02,1.862q-16.3,0-24.684-9.781T860.1,170.2a47.959,47.959,0,0,1,4.194-20.8A31.034,31.034,0,0,1,876.4,135.427a36.1,36.1,0,0,1,31.668-2.327,22.177,22.177,0,0,1,9.005,6.985,32.768,32.768,0,0,1,5.276,11.02,72.894,72.894,0,0,1,2.02,17.388H874.542v1.4a49.188,49.188,0,0,0,2.173,15.679,19.524,19.524,0,0,0,6.832,9.934,20.759,20.759,0,0,0,12.418,3.571,27.046,27.046,0,0,0,11.643-2.485,34.268,34.268,0,0,0,10.245-7.918Zm-13.194-32.133A60.877,60.877,0,0,0,907.451,148a17.785,17.785,0,0,0-4.969-8.383,12.838,12.838,0,0,0-8.694-2.949,15.491,15.491,0,0,0-13.041,6.52c-3.26,4.347-5.122,10.556-5.745,18.628Z" transform="translate(-435.229 -66.034)" fill="#1b365d"/>
  <rect id="Rectangle_34" data-name="Rectangle 34" width="13.658" height="13.658" transform="translate(293.394 38.5)" fill="#1b365d"/>
</svg>
