<svg id="vehicles" xmlns="http://www.w3.org/2000/svg" width="83.033" height="61.734" viewBox="0 0 83.033 61.734">
  <path id="Path_31" data-name="Path 31" d="M83.033,39.314c0-1.406,0-5.11-.171-6.173-.274-1.818-.926-3.738-3.052-6.756a7.689,7.689,0,0,0-5.59-3.155v-.137a7.241,7.241,0,0,0,1.3.137c3.293.069,6.311-1.783,6.757-4.15.446-2.332-1.852-4.287-5.145-4.356A8.081,8.081,0,0,0,72.127,16.3c-.377-1.338-.857-2.95-1.406-4.63A26.866,26.866,0,0,0,65.3,2C63.9.593,53.126.01,42.048.01S20.338,1.073,18.932,2.479a24.239,24.239,0,0,0-5.419,9.192c-.514,1.646-.995,3.258-1.372,4.6A8.054,8.054,0,0,0,7.2,14.758c-3.293.069-5.59,1.989-5.145,4.356.446,2.332,3.464,4.219,6.757,4.15a8.015,8.015,0,0,0,1.338-.137v.137A8.4,8.4,0,0,0,4.733,26.35C2.332,29.162.652,30.843.274,33.175A61.273,61.273,0,0,0,0,39.314v1.715H0V52.381a2.024,2.024,0,0,0,.069.48h0a1.622,1.622,0,0,0,1.646,1.715v1.715c0,2.847,1.578,5.453,4.424,5.453h6.448c2.847,0,5.179-4.321,5.179-7.168V52.827H65.233v1.749c0,2.847,2.332,7.168,5.179,7.168H76.86c2.847,0,4.424-2.607,4.424-5.453V54.576a1.641,1.641,0,0,0,1.646-1.715L83,41.029V39.314M14.816,26.179a5.933,5.933,0,1,1-5.933,5.933,5.935,5.935,0,0,1,5.933-5.933m2.95-8.883S20.715,5.429,23.7,5.429H59.3c2.95,0,5.933,8.883,5.933,11.867H17.8Zm53.366,20.75a5.933,5.933,0,1,1,5.933-5.933,5.914,5.914,0,0,1-5.933,5.933" transform="translate(0 -0.01)"/>
</svg>
